<svg width="176" height="216" viewBox="0 0 176 216" fill="none" xmlns="http://www.w3.org/2000/svg">
<g clip-path="url(#clip0_419_1108)">
<path d="M85.4452 74.5353C80.5928 66.1824 76.1089 58.4587 73.222 51.0339C72.2699 48.0293 71.5175 45.0563 71.0568 42.2248C69.4291 34.0921 70.1048 29.31 73.1452 22.7346C73.2067 22.593 73.2834 22.4514 73.3449 22.3099C74.7883 21.4604 76.7692 20.6739 79.0572 20.4537C84.14 19.9346 92.7546 21.2559 96.0561 30.7572C99.5265 40.7933 92.0943 60.3621 85.4452 74.5353ZM116.802 17.9368C116.464 17.2918 115.236 14.9165 114.821 14.1142C114.744 13.9569 114.683 13.8626 114.683 13.8468C109.324 3.76354 109.139 5.66694 105.792 5.06918C105.669 5.05345 105.546 5.00626 105.408 4.9748C101.6 4.07815 95.0426 1.5298 91.8333 0.318544C88.5318 -0.90844 79.825 1.75003 74.2048 2.31633C72.7767 2.4579 71.6711 2.72533 70.7804 3.08713C68.2007 4.10962 67.5557 5.85571 66.4808 7.28719C65.8512 8.12091 65.4213 8.3726 64.8377 8.51417H64.807C60.4306 10.1187 50.1115 23.1751 52.3381 41.1866C52.4917 42.9484 52.8602 44.6787 53.3209 46.3619C57.6051 63.6655 71.8861 86.8524 75.4025 93.4277C72.8228 99.5312 67.2947 112.037 65.5287 123.835C65.452 124.228 65.0374 126.95 65.0067 129.215C64.7763 135.208 65.8666 140.698 69.2602 144.631C69.2756 144.662 69.9205 145.37 69.9512 145.402C71.6864 147.148 73.7287 148.264 75.7864 148.941C78.704 150.231 80.9153 149.507 83.0651 149.13C84.0171 149.727 85.0153 150.184 86.0441 150.545C92.1711 152.716 99.0351 150.97 102.244 149.13C106.559 147.698 108.525 145.103 109.753 141.091C110.997 137.3 112.886 129.577 108.602 118.156C106.667 113.217 102.782 105.493 96.8085 94.2615L96.7625 94.1985C101.553 84.9018 114.406 61.888 116.694 55.171C116.817 54.8092 116.925 54.4789 117.032 54.1328C120.917 43.9394 123.451 30.474 116.802 17.9368" fill="white"/>
<path d="M81.7949 105.718C80.4128 102.981 77.3724 97.019 76.7274 95.6032C69.6791 109.666 67.9439 125.271 67.8364 129.801C67.9132 133.294 67.8364 138.579 72.6582 140.829C79.0462 131.925 67.8518 118.617 81.7949 105.718Z" fill="#ACA9A6"/>
<path d="M97.9647 58.8414C99.6078 50.457 103.723 43.3153 98.5021 31.659C94.2025 22.0633 86.8164 18.6341 79.0463 20.4431C84.1291 19.924 92.7591 21.2454 96.0452 30.7466C99.531 40.7827 92.0988 60.3515 85.4497 74.5405C85.2961 74.8708 85.1272 75.2012 84.9737 75.5315C88.2137 81.2889 90.8549 86.2283 94.0182 92.0801C94.0182 92.0801 98.2718 85.0485 100.038 81.8552C96.4137 73.2506 96.9358 64.0639 97.9647 58.8414Z" fill="#ACA9A6"/>
<path d="M118.152 31.5012C118.152 31.2181 118.152 30.9192 118.136 30.636V30.5888C118.136 30.463 118.121 30.3529 118.121 30.227C118.075 28.9686 117.998 27.8832 117.875 26.9865C117.752 26.1056 117.599 25.445 117.461 24.973C116.846 23.0854 115.372 20.8202 113.683 18.6493C110.382 14.4021 106.251 10.4852 106.113 10.3751C105.852 10.4852 105.591 10.6268 105.314 10.7998C101.782 12.9549 101.874 15.8965 89.6205 9.88742C87.7778 8.97505 84.8755 9.55708 83.2632 9.66719C95.6553 19.0898 109.245 18.6965 118.152 31.5012" fill="#BCBAB7"/>
<path d="M108.65 66.97C109.126 66.2306 109.556 65.5542 109.94 64.9407C110.4 64.1699 110.83 63.3834 111.245 62.5969C111.429 62.2351 111.613 61.8733 111.798 61.4957C116.819 51.1293 118.232 39.0325 118.17 31.4976C111.874 12.7467 93.4935 21.0996 87.6123 9.41184C87.5201 9.41184 83.113 9.67926 83.0209 9.69499C83.3126 10.0725 83.6044 10.4501 83.9269 10.8119C86.2609 13.549 91.7276 19.0861 97.6089 20.4862C103.49 21.9019 108.419 22.7828 113.379 30.3492C118.339 37.9314 113.057 48.5967 108.419 59.089C106.561 63.2733 106.377 67.4734 106.116 71.6262C106.868 70.5565 107.037 69.3138 107.928 68.0711C108.143 67.7093 108.389 67.3475 108.65 66.97" fill="#CCC9C6"/>
<path d="M113.334 30.3572C108.375 22.7751 103.445 21.9099 97.5641 20.4942C91.6828 19.0784 86.2161 13.5413 83.882 10.8041C83.5749 10.4423 83.2678 10.0648 82.976 9.68727C78.9221 10.0963 75.6667 13.4154 73.4708 18.1818C72.7184 19.8178 72.0888 21.6268 71.582 23.5302C73.2097 22.083 75.9584 20.7301 79.0296 20.4312C86.7996 18.6222 94.1858 22.0515 98.4854 31.6471C103.706 43.2878 99.591 50.4452 97.948 58.8138C96.9191 64.0364 96.397 73.223 100.021 81.8276C101.28 79.5624 102.647 76.4163 106.04 71.6028C106.317 67.4499 106.501 63.2498 108.344 59.0655C113.012 48.6047 118.294 37.9394 113.334 30.3572" fill="#BBB8B5"/>
<path d="M78.1439 94.1396C72.6618 101.973 64.2468 143.832 76.4854 142.37C95.6956 139.617 80.6929 99.4723 78.1439 94.1396Z" fill="#9A9794"/>
<g opacity="0.33">
<path d="M79.6278 17.2751C80.9945 16.8189 82.4379 16.5672 83.866 16.4099C85.3095 16.2526 86.7529 16.2211 88.1964 16.3312C91.0833 16.5357 93.9855 17.2593 96.5807 18.6908C99.1758 20.1223 101.372 22.2774 102.969 24.8415C103.752 26.1314 104.397 27.4999 104.934 28.9157C105.426 30.3472 105.84 31.7944 106.132 33.2731C107.314 39.2192 106.777 45.3856 105.564 51.2531C104.335 57.1363 102.447 62.8465 100.235 68.3679C98.0395 73.8894 95.4904 79.2378 92.8953 84.5075L88.9488 92.3728L85.1099 100.222C82.6222 105.476 80.2114 110.762 78.5529 116.268C78.1383 117.636 77.7851 119.036 77.5087 120.436C77.217 121.836 77.002 123.252 76.9406 124.668C76.7716 127.515 77.0788 130.409 78.1997 133.115L77.8619 133.304C76.2342 130.787 75.4357 127.719 75.2668 124.683C75.0672 121.632 75.4203 118.58 76.0192 115.607C76.5874 112.634 77.478 109.755 78.4301 106.924C79.3821 104.092 80.5031 101.323 81.6702 98.5864C86.3383 87.6851 91.8511 77.3186 96.7188 66.7792C97.9166 64.1364 99.1144 61.4937 100.174 58.788C101.249 56.0981 102.232 53.3767 103.03 50.5924C104.642 45.0552 105.548 39.2349 104.719 33.5247C104.535 32.0933 104.166 30.709 103.752 29.3247C103.306 27.9719 102.738 26.6505 102.063 25.3921C100.665 22.9066 98.669 20.783 96.2275 19.32C93.8012 17.8414 91.0065 17.0077 88.1657 16.693C86.7376 16.5357 85.3095 16.5043 83.8814 16.5987C82.4533 16.693 81.0252 16.8818 79.6278 17.2908V17.2751V17.2751Z" fill="#797775"/>
</g>
<path d="M94.3143 90.0585C93.7768 89.1461 93.4697 88.6427 93.4544 88.6427C93.2547 88.2966 93.0705 87.9663 92.8708 87.636C85.4847 74.029 77.5304 62.1839 73.2154 51.0467C72.2633 48.0421 71.5109 45.0691 71.0502 42.2376C69.4225 34.1049 70.0982 29.3228 73.1386 22.7474C76.0562 16.408 84.8705 8.51122 89.7997 10.9337C100.441 16.1563 101.854 13.6394 104.418 11.4843C104.495 11.4214 104.695 11.2641 104.787 11.1854C104.848 11.1382 105.171 10.9337 105.217 10.8865C133.103 32.8464 103.221 75.2875 94.3143 90.0585ZM77.3001 141.529C76.563 141.639 75.8566 141.67 75.1963 141.592C74.0907 141.434 72.9697 140.994 71.9102 140.239C70.4206 139.185 69.315 137.628 68.7469 135.866C67.0117 130.549 67.3802 119.978 76.6397 96.0518C77.6072 98.2069 78.5132 100.22 78.9124 101.054C84.2716 112.16 85.5615 122.353 85.5615 128.441C84.978 136.102 81.3693 140.742 77.3001 141.529ZM116.811 17.9338C116.473 17.2889 115.26 14.9293 114.83 14.1113C114.753 13.954 114.691 13.8596 114.691 13.8439C109.332 3.76059 109.148 5.67972 105.8 5.06623C105.678 5.0505 105.555 5.00331 105.432 4.97185C101.624 4.07521 95.0667 1.52685 91.8574 0.331327C88.5559 -0.911388 79.8491 1.76281 74.2289 2.31338C72.8008 2.45496 71.6952 2.72238 70.8045 3.08419C68.2248 4.10667 67.5798 5.85276 66.5049 7.28424C65.8753 8.11796 65.4454 8.38539 64.8618 8.51123C64.8465 8.51123 64.8311 8.51123 64.8311 8.52696C60.4547 10.1315 50.1356 23.1878 52.3622 41.1993C52.5158 42.9612 52.8843 44.6915 53.345 46.3747C57.6139 63.6626 71.9102 86.8494 75.4266 93.4248C72.8469 99.5283 67.3188 112.034 65.5529 123.832C65.4761 124.225 65.0615 126.947 65.0308 129.212C64.8004 135.205 65.8907 140.695 69.2843 144.628C69.2997 144.644 69.9446 145.367 69.9753 145.399C71.7105 147.145 73.7529 148.262 75.8105 148.938C78.7281 150.228 80.9394 149.504 83.0738 149.127C84.0413 149.725 85.0394 150.181 86.0529 150.542C92.1798 152.713 99.0439 150.967 102.253 149.127C106.568 147.695 108.518 145.1 109.762 141.088C111.006 137.313 112.895 129.574 108.611 118.153C106.676 113.214 102.791 105.49 96.8173 94.2585L96.7712 94.1956C101.562 84.8988 114.415 61.885 116.703 55.1681C116.826 54.822 116.933 54.4759 117.041 54.1299C120.911 43.9365 123.444 30.4711 116.811 17.9338" fill="#EFECE8"/>
<path d="M105.249 72.3486C104.85 73.0093 103.821 74.5981 102.531 76.5329C99.3373 82.0544 96.3122 86.7421 94.316 90.0612C94.9609 91.1309 96.4044 93.5377 97.034 94.686C96.9572 94.5444 96.8804 94.4029 96.8036 94.2456L96.7576 94.1826C97.0647 93.5849 97.4025 92.9399 97.771 92.232C97.8017 88.4882 104.005 75.243 105.249 72.3486" fill="#DAD7D3"/>
<path d="M91.7963 2.7948C89.4468 1.5049 86.4371 1.59928 83.5655 2.11839C82.6903 2.2757 80.6019 2.68469 80.6019 2.68469C80.6019 2.68469 84.8247 3.75437 88.203 4.96562C90.3835 5.81507 94.0229 7.26228 98.4146 4.88697L98.4914 4.6982C96.4644 4.47797 94.0382 4.02179 91.7963 2.7948" fill="#BBB8B5"/>
<path d="M78.0486 3.81801C77.0812 4.21128 76.2367 4.55735 75.6378 4.88769C67.7142 9.38663 65.4569 13.8541 65.0883 14.2159C64.858 15.789 64.5202 16.9845 64.3513 18.8879C65.8254 19.6587 72.9352 18.2429 77.6494 14.4361C78.2329 13.9328 78.8471 13.4451 79.4921 12.9889C79.7378 12.7844 79.9681 12.6743 80.1677 12.517C80.1985 12.5013 80.2292 12.4384 80.2599 12.4384C82.9625 9.96866 86.1412 3.89667 89.1202 5.39107C89.3505 5.51691 89.5962 5.62702 89.8266 5.72141L88.767 5.10792C86.6325 3.94386 84.3752 3.07867 81.9337 3.07867C80.6745 3.11014 79.3846 3.31464 78.0486 3.81801" fill="url(#paint0_linear_419_1108)"/>
<path d="M66.3244 8.85662C65.9713 9.75326 65.6795 10.6184 65.4799 11.7353C65.3417 12.5061 65.2035 13.3398 65.0806 14.2207C70.0866 7.86559 75.1233 5.15994 75.6454 4.90825C76.2289 4.60937 77.8413 3.4925 78.5477 3.24081C73.1271 4.75094 70.102 7.01614 66.8619 8.0229C66.7083 8.14874 66.4166 8.63639 66.3244 8.85662" fill="#F6F2EE"/>
<path d="M92.8799 11.0595C84.5878 6.30889 80.3188 12.3494 80.3188 12.3494C80.2881 12.3652 80.2728 12.4438 80.2421 12.4438C77.2937 15.1337 74.3454 18.8933 73.1323 22.7159C76.0499 16.3764 84.8642 8.47971 89.8087 10.9022C101.479 16.6281 102.063 13.0573 105.226 10.8708C102.907 12.3022 101.003 15.7158 92.8799 11.0595Z" fill="#EBE7E3"/>
<path d="M104.4 11.2991C98.9638 13.6272 95.2938 9.06536 89.7964 5.74621C89.5661 5.6361 89.3357 5.54171 89.09 5.41587C85.2818 3.46528 78.8477 13.8003 78.8631 13.7845C80.0915 12.8564 84.5754 6.31251 92.8676 11.0631C100.991 15.7194 102.189 13.0767 104.4 11.4879C104.507 11.4092 105.214 10.8901 105.214 10.8901C105.214 10.8901 104.523 11.2204 104.4 11.2991Z" fill="#FFFBF7"/>
<path d="M77.6432 14.441C72.9136 18.122 65.8039 19.6635 64.3451 18.8928C63.7001 26.176 62.1492 35.5829 63.7308 46.2167C64.4219 50.8573 65.3432 55.8124 66.0956 60.7046C64.1455 45.0841 63.7462 26.3333 77.6432 14.441" fill="#EFECE8"/>
<path d="M70.7756 3.08491C68.1959 4.1074 67.5509 5.85349 66.476 7.28497C65.8464 8.11869 65.4165 8.38611 64.8329 8.51196C65.2322 8.4333 65.6929 8.30746 66.2303 8.18161C67.6738 7.80408 68.9022 7.26924 70.3303 6.60856C71.6509 6.01079 73.1404 5.33438 75.0446 4.54785C76.1041 4.1074 78.3461 3.27368 79.5285 2.94333C80.7262 2.61299 83.8434 2.06242 84.0124 2.03096C84.0124 2.03096 85.2101 1.87366 85.594 1.81073C85.4865 1.82647 72.4341 2.59726 70.7756 3.08491" fill="#EFECE8"/>
<path d="M104.083 145.849C103.96 146.132 103.853 146.368 103.714 146.604C103.254 147.516 102.762 148.366 102.24 149.121C106.571 147.674 108.521 145.141 109.749 141.083C105.173 146.022 104.083 145.849 104.083 145.849" fill="#D2CFCB"/>
<path d="M94.0137 147.198C90.5587 145.641 87.7793 148.693 86.0441 150.533C92.171 152.704 99.0351 150.958 102.244 149.117C102.767 148.362 103.258 147.513 103.719 146.6C101.907 149.699 97.3613 148.708 94.0137 147.198Z" fill="#DEDBD7"/>
<path d="M83.3954 141.938C85.1459 138.414 86.0673 132.028 85.5452 128.441C84.9617 136.071 81.353 140.743 77.2991 141.529C76.562 141.655 75.8557 141.671 75.1954 141.592C74.0744 141.435 72.9688 140.994 71.8939 140.239C71.7096 140.113 71.5407 139.972 71.3871 139.846C68.2852 138.902 65.7976 136.212 65.0759 132.924C65.0759 132.893 65.0605 132.862 65.0452 132.83C65.0759 133.365 65.1219 133.9 65.1834 134.419L65.1987 134.529C65.383 136.118 65.7055 137.644 66.1969 139.075C69.6058 145.415 79.4182 149.976 83.3954 141.938" fill="#EBE7E3"/>
<path d="M77.3097 141.528C76.5726 141.654 75.8663 141.669 75.206 141.591C74.1003 141.433 72.9794 140.993 71.9198 140.238C71.106 139.656 70.3996 138.932 69.8314 138.099C67.0367 135.126 65.4857 129.84 65.24 126.238L65.2247 126.112C65.1172 127.071 65.025 128.188 65.0097 129.211C64.9176 131.382 65.0097 133.49 65.3322 135.487C65.3475 135.519 65.3475 135.566 65.3629 135.597C68.4648 141.638 77.064 147.647 82.7764 137.485C81.2869 139.75 79.352 141.135 77.3097 141.528" fill="#F2EFEA"/>
<path d="M114.684 13.8435C109.325 3.76019 109.141 5.66359 105.793 5.06583C101.248 5.31752 96.1803 8.55801 89.823 5.74224C98.7908 11.2322 106.33 -0.612908 114.822 14.0794C114.822 14.0952 114.93 14.2839 114.93 14.2997C114.899 14.2367 114.868 14.1738 114.838 14.1266C114.745 13.9693 114.684 13.8592 114.684 13.8435" fill="#E7E4E0"/>
<path d="M75.7938 148.939C78.0511 147.492 79.9706 145.478 81.4908 143.135C77.2373 147.146 68.0084 145.84 65.3058 135.427C65.8432 138.95 67.0871 142.112 69.2522 144.629C69.2676 144.661 69.9125 145.368 69.9432 145.4C71.6938 147.146 73.7361 148.263 75.7938 148.939Z" fill="#CCC9C6"/>
<path d="M91.8303 0.335011C88.5288 -0.907704 79.8221 1.76649 74.2019 2.33279C72.7738 2.47437 71.6682 2.74179 70.7775 3.10359C74.0944 2.36425 74.3247 3.10359 84.0757 1.98672C84.1217 1.97099 85.3502 1.86088 85.6727 1.84515C87.8685 1.70357 90.0184 1.84514 91.7996 2.83617C94.0416 4.06315 96.1453 4.58226 98.1723 4.80249C100.691 5.08564 103.086 4.89687 105.405 5.00699C101.597 4.07889 95.0397 1.53053 91.8303 0.335011" fill="#F2EFEA"/>
<path d="M98.1648 4.7592L97.9037 4.90077C94.2797 6.91429 90.9168 5.97045 88.7516 5.121C89.1048 5.30977 89.458 5.51427 89.8112 5.73449C96.1839 8.55026 101.251 5.30977 105.781 5.05808C105.658 5.04235 105.536 4.99516 105.413 4.9637C103.079 4.85358 100.698 5.04235 98.1648 4.7592" fill="#EBE7E3"/>
<path d="M105.249 118.611C101.134 99.9706 92.1508 87.8424 84.2579 77.9007C77.5474 69.4691 73.9081 60.3768 72.2189 52.1497C72.3878 54.0374 72.5414 56.0194 72.6643 58.0329C74.1998 69.4691 78.3459 83.0445 90.5845 98.3976C101.717 112.351 104.067 114.254 105.249 118.611Z" fill="#FFFBF7"/>
<path d="M115.034 14.5096L115.157 14.8085C115.188 14.8872 115.925 16.6647 115.956 16.7434C118.029 21.7142 115.879 25.8042 115.479 26.512C118.459 37.3189 115.341 49.6832 110.489 60.9305C108.385 65.8542 108.462 70.2745 107.848 73.3734C107.848 73.3577 107.863 73.3419 107.863 73.3262C111.886 65.7126 115.556 58.4608 116.693 55.1574C116.815 54.7956 116.923 54.4653 117.03 54.1192C120.915 43.9415 123.449 30.4761 116.8 17.9389C116.508 17.3726 115.556 15.5164 115.034 14.5096" fill="#EBE7E3"/>
<path d="M105.216 10.8727C108.149 13.1851 110.192 15.9222 111.942 18.6279C111.343 14.3334 110.284 10.0547 106.783 10.4322C106.337 10.4794 105.923 10.5581 105.508 10.7469C105.493 10.7469 105.462 10.6839 105.216 10.8727" fill="#DEDBD7"/>
<path d="M116.051 16.6606C116.02 16.5977 113.963 13.5302 112.796 12.3033C111.506 10.8718 109.632 10.0223 108.005 10.0695C106.5 10.1167 105.901 10.5257 105.44 10.7617C105.364 10.7931 105.287 10.8718 105.241 10.8875C110.262 9.40884 111.229 14.3797 111.967 18.6427C113.579 21.1438 114.746 23.7866 115.498 26.5394C115.759 25.9731 117.894 21.5528 116.051 16.6606" fill="#CCC9C6"/>
<path d="M86.0457 150.528C88.2263 148.704 90.0229 146.706 92.3263 146.785C90.6678 146.706 84.4948 148.075 83.0667 149.113C84.0341 149.71 85.0323 150.182 86.0457 150.528Z" fill="#D2CFCB"/>
<path d="M107.15 131.265C107.089 129.518 106.889 127.804 106.582 126.136C105.953 122.817 104.816 119.734 103.081 117.201C96.6469 107.905 81.199 90.7426 77.2065 77.3716C78.3735 85.756 76.3926 95.8236 79.6634 100.763C80.7844 102.226 81.8593 103.689 82.8881 105.105C90.7503 114.716 99.887 120.285 99.5953 133.907C99.4417 141.128 97.0769 143.707 93.6065 147.027C93.7447 147.074 93.8829 147.121 94.0211 147.184C97.3687 148.678 101.914 149.669 103.726 146.586C106.06 141.93 107.396 137.588 107.15 131.265" fill="#EFECE8"/>
<path d="M100.182 135.073C102.255 117.549 92.3814 108.158 82.9683 97.1154C81.878 95.8727 78.7301 94.4569 79.9739 97.3671C85.287 105.925 88.8342 114.215 89.6634 117.675C94.6234 138.046 89.172 144.496 83.0604 149.121C84.4885 148.082 90.6616 146.714 92.32 146.793C92.7192 146.808 93.1492 146.887 93.5945 147.044C96.42 144.339 98.3702 142.907 99.4911 138.597C99.6447 137.999 99.7829 137.338 99.9365 136.599C100.029 136.111 100.121 135.608 100.182 135.073" fill="#E7E4E0"/>
<path d="M92.9302 122.266C90.6268 112.843 85.1909 98.1349 75.5321 85.2987C75.3785 85.7549 74.5339 88.5235 73.8276 90.5842C74.4725 91.7168 75.01 92.6764 75.4092 93.4157C75.9006 94.4067 76.2231 95.0831 76.6377 96.0427C77.6051 98.1978 78.5111 100.211 78.9103 101.045C84.2695 112.151 85.5594 122.344 85.5594 128.432C85.9587 136.061 82.2272 144.823 75.8085 148.929C78.7261 150.219 80.9373 149.495 83.0871 149.118C88.2927 147.167 97.8901 142.637 92.9302 122.266" fill="#F2EFEA"/>
<path d="M80.7605 9.69393C77.7815 11.1569 75.217 13.3434 73.0519 15.8131C70.8867 18.2828 69.1976 21.1615 68.0305 24.229C65.6811 30.3953 65.5122 37.2067 66.5257 43.7349C67.4931 50.3102 69.8118 56.6654 71.1324 63.3666C71.8081 66.7015 72.1766 70.1465 72.0691 73.56C71.9616 76.9735 71.3627 80.3556 70.3493 83.5804C70.9942 80.2612 71.332 76.9106 71.1938 73.56C71.1017 70.2251 70.5489 66.9217 69.7811 63.6812C68.9979 60.4407 68.0305 57.2317 67.0785 53.9755C66.1571 50.7192 65.2972 47.4158 64.7751 44.018C64.2684 40.6202 64.0687 37.1595 64.3451 33.7145C64.5141 31.9999 64.7444 30.2852 65.159 28.6021C65.5429 26.9189 66.0803 25.2672 66.7714 23.6784C68.1227 20.5008 70.0575 17.6064 72.4376 15.1839C74.8332 12.8243 77.6279 10.7951 80.7605 9.69393" fill="#CCC9C6"/>
<path d="M74.0256 90.331C74.6859 88.522 75.1158 86.6658 75.3155 84.7624C75.4844 82.859 75.5151 80.9556 75.3769 79.0365C75.1773 75.2139 74.6091 71.4229 74.0563 67.6161C73.5188 63.8093 72.8893 60.0182 72.3979 56.2114C71.8758 52.4046 71.6915 48.5821 71.3383 44.7438L74.7319 67.5059C75.2848 71.3127 75.8069 75.1353 75.9451 79.005C76.0218 80.9399 75.9143 82.8747 75.684 84.7938C75.3308 86.713 74.8241 88.5849 74.0256 90.331" fill="#CCC9C6"/>
<path d="M64.6906 12.4439C63.9689 14.8664 63.3086 17.3047 62.8326 19.7744C62.3258 22.2441 61.9419 24.7452 61.6962 27.2464C61.2049 32.2487 61.2049 37.314 61.7116 42.3163C62.1876 47.3186 63.324 52.2423 64.5524 57.1345C65.1513 59.5884 65.8116 62.0267 66.3491 64.5121C66.8558 66.9818 67.3472 69.5144 67.2704 72.047C67.1629 69.5144 66.5948 67.0447 65.9498 64.6065C65.3049 62.1683 64.5985 59.7457 63.9228 57.3075C62.5408 52.4468 61.4198 47.4602 60.867 42.3949C60.606 39.8623 60.4985 37.314 60.5292 34.7656C60.5599 32.2173 60.6981 29.6689 61.0206 27.152C61.3431 24.6194 61.8037 22.134 62.4026 19.6643C63.0322 17.226 63.7693 14.8035 64.6906 12.4439" fill="#CCC9C6"/>
<path d="M60.0564 14.5432C58.9662 16.6511 58.2291 18.9163 57.6302 21.1972C57.0313 23.4939 56.6167 25.822 56.2942 28.1658C55.68 32.8536 55.6032 37.6199 56.0793 42.3234C56.5553 47.0111 57.6456 51.6516 59.4883 55.9618C60.425 58.1011 61.4845 60.2405 62.5287 62.3326C63.5575 64.4563 64.7399 66.4855 65.8302 68.5934C65.0931 67.6653 64.3868 66.7215 63.7111 65.7462C63.0508 64.7709 62.4059 63.7641 61.807 62.7259C61.2235 61.6877 60.6553 60.6337 60.1332 59.5798C59.5957 58.5258 59.089 57.4404 58.6283 56.3236C56.7856 51.8875 55.7107 47.1526 55.2654 42.3863C54.8047 37.6042 55.0504 32.7906 55.7721 28.0715C56.1407 25.7119 56.6628 23.368 57.3384 21.0871C58.0294 18.8376 58.8433 16.5724 60.0564 14.5432" fill="#DEDBD7"/>
<path d="M65.0748 14.2196C67.1939 10.9162 70.1422 8.21052 73.3209 5.96105C74.9333 4.84418 76.6685 3.90035 78.5265 3.23966C79.2022 3.00371 79.8778 2.81494 80.5842 2.68909C80.8606 2.6419 81.1524 2.61044 81.4288 2.59471C81.9355 2.56325 82.4423 2.56325 82.9644 2.6419C83.4864 2.70483 83.9778 2.87786 84.4385 3.03517C88.1546 4.388 91.364 6.66893 94.6194 8.7139C96.2471 9.73639 97.9056 10.7274 99.7175 11.3094C100.608 11.6083 101.56 11.7814 102.497 11.7184C103.434 11.6555 104.37 11.3724 105.2 10.869C104.416 11.451 103.495 11.8286 102.512 11.9544C101.53 12.0802 100.547 11.9544 99.5947 11.7184C97.6906 11.1993 95.9707 10.2555 94.2816 9.29593C90.9187 7.36107 87.74 5.09587 84.1467 3.86889C83.6861 3.72731 83.2715 3.57001 82.8261 3.50708C82.3808 3.42843 81.9355 3.42843 81.4748 3.44416C80.5688 3.49135 79.6475 3.71158 78.7569 3.99473C76.9756 4.59249 75.2864 5.5206 73.6587 6.52735C72.031 7.54984 70.5108 8.72963 69.0673 10.0038C67.6392 11.2937 66.2726 12.678 65.0748 14.2196" fill="#CCC9C6"/>
<path d="M105.216 10.8728C105.984 10.2278 106.967 9.80311 107.996 9.72445C109.025 9.6458 110.084 9.89749 111.006 10.3851C112.649 11.2346 113.862 12.4458 114.814 14.1133C114.845 14.1605 114.937 14.3492 115.029 14.5223C115.09 14.6324 115.136 14.7425 115.167 14.8054C116.196 16.756 116.856 18.6437 116.933 20.7201C117.04 22.7808 116.58 24.8415 115.459 26.5247C116.349 24.7629 116.657 22.7336 116.472 20.7516C116.273 18.7695 115.643 16.8504 114.66 15.1358C113.693 13.4369 112.357 11.9267 110.699 10.9672C109.869 10.4953 108.948 10.2121 107.996 10.1806C107.059 10.1492 106.107 10.4009 105.216 10.8728" fill="#BBB8B5"/>
<path d="M76.1932 84.9007C77.1146 89.2737 78.5273 93.521 80.5236 97.4536C81.5063 99.4357 82.612 101.355 83.8251 103.18L85.6985 105.932L86.6352 107.317C86.9423 107.773 87.2187 108.276 87.5105 108.748C88.6929 110.636 89.7064 112.634 90.6584 114.663C91.5644 116.708 92.3475 118.816 92.9464 120.987C93.5299 123.157 93.9599 125.36 94.1442 127.593C94.3592 129.827 94.3899 130.771 94.3131 133.005C94.267 130.771 94.1595 129.843 93.8524 127.641C93.5607 125.438 93.1153 123.252 92.4858 121.128C91.8408 119.005 91.0116 116.944 90.1056 114.93C89.1382 112.948 88.1247 110.966 86.9423 109.11C86.6505 108.638 86.3741 108.166 86.067 107.71L85.1303 106.341C84.5161 105.429 83.8711 104.517 83.2723 103.573C82.0592 101.701 80.9535 99.7503 79.9861 97.7368C78.082 93.6783 76.7768 89.3209 76.1932 84.9007" fill="#CCC9C6"/>
<path d="M74.9766 72.845C75.299 75.8653 76.0822 78.8069 76.9575 81.7014C77.8481 84.5958 78.9077 87.4273 80.1515 90.1644C82.6545 95.6386 85.8485 100.814 89.9792 105.124C91.0234 106.178 92.0983 107.264 93.0657 108.428C94.0485 109.592 94.9238 110.834 95.7376 112.124C97.3653 114.704 98.5938 117.536 99.4077 120.493C100.759 125.448 100.928 130.686 100.099 135.72C99.9298 136.695 99.7301 137.655 99.4998 138.615C100.083 135.626 100.375 132.605 100.268 129.585C100.191 126.565 99.7455 123.56 98.9009 120.666C98.041 117.787 96.8432 115.019 95.2309 112.502C94.4324 111.243 93.5417 110.032 92.5743 108.9C91.6069 107.751 90.5627 106.729 89.5032 105.628C85.3571 101.223 82.1017 95.9847 79.7062 90.4004C78.5084 87.616 77.4796 84.7374 76.6657 81.8115C76.2665 80.3485 75.9133 78.8699 75.6062 77.3754C75.299 75.881 75.0533 74.3709 74.9766 72.845" fill="#D2CFCB"/>
<path d="M110.333 64.9719C111.884 61.9044 113.143 58.7111 114.249 55.4864C115.355 52.2616 116.276 48.9582 117.028 45.6233C117.765 42.2884 118.272 38.9064 118.487 35.4928C118.564 33.7939 118.579 32.0636 118.395 30.3804L118.272 29.1062L118.011 27.8478L117.888 27.2186C117.842 27.0141 117.75 26.8096 117.689 26.6051L117.289 25.3781C118.871 28.4613 119.24 32.0636 119.24 35.5086C119.24 37.2547 119.117 38.985 118.902 40.7154C118.702 42.4457 118.41 44.1604 118.042 45.8435C117.32 49.2413 116.322 52.5605 115.078 55.801C113.788 59.01 112.253 62.1247 110.333 64.9719" fill="#FFFBF7"/>
<path d="M88.2458 130.634C88.384 123.634 87.0941 116.728 84.9443 110.152C82.7945 103.577 79.7694 97.3163 76.2836 91.3701C74.5484 88.3813 72.7365 85.3925 71.0473 82.3565C69.3582 79.3205 67.6844 76.2688 66.1027 73.1541C62.9394 66.9563 59.9604 60.6326 57.7338 54.01C59.1158 57.2034 60.59 60.3495 62.187 63.4327C63.7533 66.5316 65.3964 69.5833 67.0548 72.6193C70.387 78.707 73.9035 84.6532 77.4507 90.6465C80.9518 96.6871 83.9616 103.074 85.9271 109.822C86.9252 113.188 87.6623 116.633 88.0769 120.126C88.4915 123.634 88.5683 127.157 88.2458 130.634Z" fill="#E1DEDA"/>
<g opacity="0.43">
<path d="M62.2015 63.4528C63.7678 66.5517 65.4109 69.6034 67.0693 72.6394C67.7603 73.8979 68.4514 75.1406 69.1577 76.3833C71.1693 79.671 73.4266 83.0531 75.8989 86.3408C87.2315 101.411 94.3566 116.764 89.2278 131.582C88.2911 134.272 88.7671 135.546 89.9495 135.593H90.1031C93.3585 135.452 101.313 127.051 101.451 114.388V113.775C101.359 105.076 97.566 94.442 86.1259 83.1317C68.3439 69.2888 57.7484 54.0302 57.7484 54.0302C59.115 57.2392 60.5892 60.3696 62.2015 63.4528" fill="url(#paint1_linear_419_1108)"/>
</g>
<path d="M76.6267 96.052C76.2121 95.0924 75.9049 94.416 75.3982 93.425C72.8184 99.5285 67.2903 112.05 65.5244 123.832C65.4476 124.225 65.033 126.947 65.0023 129.212C65.0484 129.621 65.0945 129.999 65.1712 130.345C66.7222 137.219 69.1484 138.383 70.1465 138.556C69.5169 137.754 69.0409 136.841 68.7184 135.85C66.9986 130.549 67.3671 119.978 76.6267 96.052" fill="#F2EFEA"/>
<path d="M108.6 118.149C106.665 113.21 102.78 105.486 96.807 94.2546L96.7763 94.1917L92.8913 87.6321C85.5051 74.0409 77.5508 62.1958 73.2358 51.0428C72.2838 48.0382 71.5313 45.0652 71.0707 42.2337V42.2022C71.0707 42.1865 71.0707 42.1707 71.0553 42.155C71.4699 44.9236 71.3624 47.7708 72.2377 52.1754C73.9268 60.4025 77.5662 69.4947 84.2767 77.9263C92.1542 87.8366 101.122 99.9806 105.253 118.621C105.775 121.012 106.573 126.361 106.896 131.316C107.28 137.293 106.189 141.462 104.101 145.867C104.147 145.945 105.406 147.644 109.03 142.453C109.322 141.997 109.552 141.541 109.767 141.085C110.996 137.293 112.9 129.57 108.6 118.149Z" fill="#FFFBF7"/>
<path d="M57.4104 27.9489C57.4104 31.032 59.852 33.5332 62.8617 33.5332C65.8715 33.5332 68.313 31.032 68.313 27.9489C68.313 24.8657 65.8715 22.3645 62.8617 22.3645C59.8366 22.3488 57.4104 24.8499 57.4104 27.9489ZM63.5834 25.3061C63.0306 25.0859 62.6928 24.551 62.6774 23.969C62.7389 23.969 62.7849 23.9533 62.8464 23.9533C63.737 23.9533 64.5509 24.2679 65.2112 24.787C64.9501 25.1645 64.5201 25.3848 64.0748 25.3848C63.9059 25.4005 63.7524 25.369 63.5834 25.3061M59.2224 26.5016C59.5602 25.6207 60.1898 24.8971 60.9883 24.4567C61.1112 24.6612 61.1879 24.9128 61.1879 25.1803C61.1879 25.9825 60.5583 26.6275 59.7752 26.6275C59.5756 26.6118 59.4067 26.5803 59.2224 26.5016M62.0171 29.3489L61.3108 27.996C61.234 27.8387 61.2647 27.65 61.3722 27.5241L62.4164 26.423C62.5392 26.2971 62.7235 26.2657 62.8617 26.3443L64.213 27.0207C64.3666 27.0994 64.4587 27.2567 64.428 27.4297L64.213 28.9556C64.1823 29.1286 64.0595 29.2702 63.8906 29.3017L62.4164 29.5691H62.355C62.2168 29.5691 62.0939 29.4904 62.0171 29.3489M65.4876 28.2163C65.4876 27.5399 65.9482 26.9736 66.5625 26.8163C66.67 27.1781 66.7314 27.5399 66.7314 27.9331C66.7314 28.5151 66.6085 29.0657 66.3782 29.5534C65.8715 29.3646 65.4876 28.8455 65.4876 28.2163ZM59.0842 28.877C59.1917 28.8455 59.3145 28.8298 59.4374 28.8298C60.2052 28.8298 60.8501 29.4747 60.8501 30.277C60.8501 30.6073 60.7426 30.9062 60.5583 31.1422C59.8213 30.5916 59.2992 29.8051 59.0842 28.877M62.5085 31.8972C62.6007 31.1893 63.1842 30.6388 63.8906 30.6388C64.3666 30.6388 64.7812 30.8747 65.0269 31.2523C64.4127 31.677 63.6602 31.9287 62.8464 31.9287C62.7389 31.9287 62.616 31.913 62.5085 31.8972" fill="url(#paint2_linear_419_1108)"/>
<path d="M63.5067 17.8183L64.7658 20.052L66.9464 18.7621L65.6872 16.5284L63.5067 17.8183Z" fill="url(#paint3_linear_419_1108)"/>
<path d="M60.4048 37.8432L62.2168 39.6365L63.9673 37.7803L62.1554 35.987L60.4048 37.8432Z" fill="url(#paint4_linear_419_1108)"/>
<path d="M96.9824 131.661C96.7827 131.928 96.6752 132.353 96.6292 132.919C96.5831 133.485 96.5985 133.989 96.6445 134.476C96.4449 134.24 96.0303 134.177 95.8153 134.335C95.8767 134.555 95.9382 134.759 95.9689 135.011C95.9996 135.184 95.9996 135.357 95.9996 135.546C95.6157 135.829 95.1857 136.222 95.1243 136.946C95.1089 137.056 95.1243 137.166 95.1243 137.276C94.9861 136.82 94.7404 136.348 94.6176 135.955C94.5101 135.593 94.3104 135.263 94.1108 135.074C94.0494 135.011 93.988 134.995 93.9112 134.964C93.8651 135.074 93.8344 135.2 93.7883 135.31C93.773 135.357 93.7576 135.42 93.7423 135.53C93.6194 135.389 93.5119 135.263 93.3737 135.168C93.2816 135.09 93.1588 135.058 93.0359 135.043C92.7902 134.98 92.7442 135.043 92.7442 135.42C92.7442 135.546 92.7441 135.672 92.7288 135.829C92.1913 135.609 91.8842 136.065 91.8996 136.081C92.0071 136.191 92.1146 136.254 92.1453 136.427C92.176 136.584 92.1146 136.836 92.0378 137.056C91.8842 137.481 91.9917 138.22 92.2835 138.503C92.4985 138.708 92.8977 138.676 93.1895 138.393C93.5119 138.079 93.6194 137.119 93.4352 136.82C93.3277 136.647 93.2509 136.631 93.0359 136.789C93.0973 136.915 93.2048 137.04 93.1895 137.182C93.1741 137.339 93.0666 137.559 92.9591 137.685C92.8056 137.858 92.6367 137.874 92.5138 137.733C92.2988 137.481 92.2988 137.056 92.4985 136.663C92.5599 136.553 92.6981 136.348 92.7749 136.285C93.082 136.049 93.4505 135.986 93.6655 136.159C93.9112 136.348 94.0648 136.631 94.0955 137.072C94.1569 137.827 93.773 139.007 93.8037 139.762C93.8344 140.454 94.3104 140.737 94.8786 140.847C95.1243 140.894 95.7692 140.973 95.9074 141.02C96.5831 141.272 97.1666 141.225 97.5198 140.595C97.8883 139.951 98.088 138.708 98.4872 138.063C98.7176 137.701 98.9786 137.512 99.2857 137.449C99.5621 137.418 99.8539 137.638 100.023 137.984C100.069 138.063 100.1 138.315 100.1 138.44C100.084 138.881 99.9 139.258 99.5928 139.384C99.4086 139.447 99.2704 139.368 99.2089 139.133C99.1629 138.975 99.1782 138.724 99.2397 138.566C99.2857 138.44 99.4393 138.377 99.5468 138.299C99.4239 138.063 99.3471 138.016 99.1782 138.126C98.8865 138.315 98.564 139.195 98.7176 139.62C98.8404 139.998 99.1782 140.218 99.4546 140.139C99.8539 140.029 100.238 139.447 100.299 138.975C100.33 138.755 100.391 138.503 100.483 138.362C100.576 138.22 100.698 138.204 100.852 138.173C100.867 138.173 100.867 138.142 100.898 138.11C100.806 137.622 100.483 137.701 100.222 137.575C100.284 137.418 100.345 137.308 100.407 137.198C100.576 136.867 100.56 136.789 100.315 136.726C100.207 136.694 100.084 136.663 99.9614 136.679C99.8078 136.694 99.6543 136.773 99.47 136.836C99.5007 136.726 99.5161 136.679 99.5314 136.631C99.5468 136.506 99.5775 136.38 99.5928 136.254H99.5007C99.4546 136.254 99.4086 136.254 99.3472 136.27C99.1015 136.348 98.9325 136.506 98.6101 136.694C98.3183 136.867 97.9344 137.324 97.6273 137.78C97.658 137.622 97.7041 137.465 97.7655 137.324C97.9651 136.804 97.9344 136.474 97.7348 136.222L97.5045 135.845C97.5352 135.782 97.5505 135.719 97.5812 135.656C97.6887 135.31 97.8423 135.027 97.9805 134.681C97.9191 134.461 97.5352 134.256 97.2895 134.35C97.4277 133.879 97.5352 133.359 97.5352 132.762C97.5352 132.211 97.4123 131.865 97.2588 131.613C97.2434 131.582 97.2127 131.566 97.182 131.566C97.0898 131.566 97.0284 131.613 96.9824 131.661M87.0779 138.189C86.9857 137.874 86.8936 137.559 86.8015 137.213C86.4022 137.292 86.1565 137.607 85.9722 137.953C85.8033 138.283 85.7112 138.661 85.573 139.007C85.4041 138.865 85.2505 138.708 85.0816 138.566C84.5595 139.195 84.4674 139.856 84.9434 140.643C85.3273 141.272 85.788 141.854 86.2333 142.42C86.7247 143.081 87.2314 143.71 87.2775 144.56C87.3082 145.362 86.8936 146.07 86.2333 146.636C85.7112 147.092 85.1123 147.265 84.3906 147.265C84.3599 147.265 84.2985 147.485 84.2985 147.533C84.3599 147.847 84.9127 147.706 85.1891 147.627C87.2621 147.092 88.6134 145.472 87.9839 143.836C87.7382 143.191 86.9397 142.153 86.6172 141.524C86.3561 141.004 86.1258 140.485 86.2333 139.872C86.3715 139.148 87.0625 138.456 87.9224 138.598C88.4138 138.676 88.8131 139.101 88.7977 139.604C88.7977 139.935 88.5213 140.36 88.1988 140.501C87.9992 140.595 87.7842 140.611 87.6307 140.47C87.4925 140.328 87.4925 140.139 87.5846 139.935C87.6 139.903 87.6 139.872 87.6153 139.825C87.2928 139.856 86.8936 140.297 86.9396 140.643C87.0164 141.256 88.3677 141.744 88.982 141.319C89.5501 140.942 89.8573 140.061 89.6423 139.353C89.4427 138.676 89.1509 138.315 88.5059 138.11C88.4445 138.079 88.3831 138.047 88.3217 138.031C88.4445 137.701 88.552 137.418 88.6595 137.103H88.5367C87.8764 137.119 87.4771 137.575 87.0779 138.189M91.8535 140.69C91.4543 140.863 90.9629 141.366 90.8707 141.712C91.0704 141.665 91.2546 141.586 91.4235 141.555C91.7921 141.508 92.0531 141.697 92.1146 142.043C92.176 142.342 91.961 142.876 91.6539 143.128C91.1779 143.553 90.6558 143.915 90.1644 144.308C89.5808 144.748 89.3198 145.267 89.3659 145.865C89.4119 146.652 90.0722 147.218 90.1797 147.344C89.1662 148.665 87.9685 149.751 86.7554 150.757C87.0932 150.852 87.431 150.946 87.7689 151.025C88.8745 150.065 89.934 149.043 90.9782 147.879C91.8535 148.272 92.9284 148.366 93.7883 147.69C94.3258 147.265 94.5868 146.73 94.8018 146.18C94.9707 145.771 95.0936 145.346 95.2318 144.921C95.4314 144.339 95.8307 143.883 96.2606 143.71C96.6445 143.553 96.8902 143.757 96.9209 144.276C96.9209 144.339 96.9209 144.402 96.9363 144.528C97.2127 144.182 97.3048 143.82 97.3816 143.49C97.5044 142.861 97.3662 142.483 97.1052 142.231C96.7981 141.933 96.2913 141.917 95.7539 142.326C95.5543 142.483 95.2932 142.782 95.0936 143.081C94.8479 143.474 94.6483 143.867 94.4486 144.261C93.8344 145.094 93.3277 145.645 92.9898 145.975C93.3737 145.393 93.6655 144.78 93.9112 144.151C94.1262 143.616 94.3104 143.065 94.4947 142.515C94.5254 142.452 94.5254 142.373 94.5561 142.247C94.464 142.342 94.4026 142.373 94.3719 142.42C93.6501 143.317 92.8209 144.151 92.0071 144.953C91.9303 145.031 91.8689 145.126 91.7921 145.205C91.8228 144.78 92.1299 144.214 92.4524 143.726C92.5752 143.6 92.6827 143.474 92.7902 143.333C93.128 142.924 93.4198 142.436 93.6041 141.964C93.8344 141.351 93.6348 140.942 93.2816 140.706C93.082 140.564 92.8516 140.485 92.5906 140.485C92.3603 140.517 92.1146 140.58 91.8535 140.69M83.5307 142.231C83.1775 142.216 82.4711 142.184 82.4558 142.216C84.452 143.254 85.0355 144.67 85.358 146.4C85.788 146.18 86.2026 144.874 86.1412 144.182C86.049 143.222 85.5269 142.53 84.667 141.87C84.6363 141.995 84.6209 142.074 84.6056 142.184C84.1449 141.964 83.8531 141.508 83.2543 141.413C83.3464 141.697 83.4385 141.964 83.5307 142.231M101.466 144.733C101.436 144.717 101.389 144.701 101.328 144.67C100.944 144.449 99.5007 144.119 98.7636 144.921C98.2569 145.503 97.6427 146.951 98.5794 147.564C98.8097 147.706 98.9786 147.863 99.3318 147.674C99.6389 147.517 99.8385 147.234 99.9767 146.903C100.007 146.841 100.007 146.778 100.023 146.683C99.9614 146.73 99.9307 146.746 99.9 146.778C99.5928 147.108 99.4239 147.202 99.2857 147.092C99.1322 146.998 99.0247 146.447 99.1936 146.148C99.6389 145.33 100.468 145.063 100.883 145.315C101.205 145.519 101.282 145.975 101.021 146.636C100.714 147.407 100.192 148.036 99.5775 148.303C99.0093 148.539 98.4565 148.634 97.9037 148.712C97.5505 148.76 97.2127 148.665 96.8595 148.587C96.3988 148.476 95.9382 148.382 95.4161 148.524C94.034 148.933 92.437 150.223 91.5157 151.528C91.7 151.544 91.8842 151.544 92.0685 151.544C92.3295 151.229 92.652 150.915 93.0206 150.632C94.0801 149.798 95.1243 149.357 96.1224 149.405C96.9056 149.452 97.5966 149.593 98.3183 149.625C98.7636 149.641 99.1936 149.672 99.6543 149.593C100.299 149.468 100.929 148.964 101.482 148.052C101.313 148.02 101.144 147.973 100.96 147.942C101.712 147.249 102.326 146.432 102.526 145.346C102.219 145.566 101.927 145.755 101.62 145.944C101.819 145.503 102.019 145.094 102.142 144.701C102.265 144.276 102.249 143.93 102.111 143.694C101.896 144.025 101.697 144.355 101.466 144.733M86.3561 147.753C85.9262 148.115 85.9262 148.728 86.2947 149.2C86.4176 149.357 86.5558 149.499 86.6479 149.609C87.0164 149.294 87.3543 148.964 87.7074 148.681C88.5213 148.052 88.7516 147.312 88.6288 146.542C88.5981 146.353 88.552 146.18 88.5059 145.928C87.7689 146.605 87.0318 147.171 86.3561 147.753M82.7936 147.989C82.4097 147.973 82.0411 147.957 81.6726 147.91C81.6726 147.942 82.0872 148.351 82.3329 148.539C82.1486 148.697 81.9951 148.838 81.8262 148.964C83.6074 148.885 84.928 149.735 86.2486 150.584C86.0797 149.499 84.5749 148.02 82.7322 147.753C82.7475 147.832 82.7629 147.894 82.7936 147.989ZM89.8726 150.317C89.5962 150.647 89.197 150.962 88.8591 151.261C89.4887 151.371 90.1183 151.45 90.7325 151.481C90.8093 151.45 90.8707 151.402 90.9475 151.355C91.2853 151.103 91.5771 150.757 91.8535 150.443C92.0685 150.207 92.2221 149.939 92.4217 149.688C92.6059 149.452 92.8209 149.216 93.0206 148.964C91.7614 148.996 90.6865 149.357 89.8726 150.317M96.5217 150.27C95.4161 150.364 94.2183 150.883 93.0513 151.528C94.8786 151.465 96.6445 151.151 98.1801 150.742C97.8269 150.427 97.3816 150.27 96.8134 150.27C96.7213 150.254 96.6138 150.27 96.5217 150.27Z" fill="url(#paint5_linear_419_1108)"/>
<path d="M85.6958 92.46C85.6344 92.4758 85.5883 92.5072 85.5883 92.5544V92.5701C85.6037 92.9005 85.6958 93.278 86.0183 93.7657C86.3715 94.3162 86.7554 94.7095 87.1546 95.0556C86.8782 95.1342 86.6479 95.5432 86.7247 95.7792C87.0318 96.0151 87.3389 96.1567 87.6306 96.4084C88.2449 96.9275 88.5673 96.6444 88.6134 96.4241C88.6288 96.3455 88.5366 96.1882 88.3831 96.0151C88.5059 96.141 88.6595 96.2196 88.813 96.2196C89.0894 96.1567 89.2737 96.0309 89.0587 95.5904C88.9512 95.3702 88.7516 95.1185 88.6441 94.8825C88.5366 94.6466 88.4752 94.4106 88.3984 94.1747C88.1067 94.1432 87.7842 94.4578 87.7381 94.7881C87.4924 94.332 87.216 93.86 86.8475 93.3724C86.479 92.9005 86.1411 92.5701 85.8187 92.4443C85.7879 92.4286 85.7726 92.4286 85.7419 92.4286L85.6958 92.46V92.46ZM90.9014 94.505C90.9782 95.0398 91.5157 95.9365 92.0685 96.6129C91.8381 96.0466 91.9303 95.7163 92.1453 95.4331C92.222 95.323 92.2067 94.9297 91.9149 94.5679C91.8074 94.4263 91.531 94.1432 91.3621 94.096C91.3007 94.0803 91.2546 94.0645 91.2086 94.0645C90.9475 94.0803 90.8707 94.3005 90.9014 94.505M94.5715 95.0084C94.4486 95.1185 94.2183 95.3073 94.0954 96.0151C93.988 95.8736 93.6962 95.6061 93.558 95.4803C93.5119 95.5747 93.4351 95.6376 93.4044 95.7477C93.3123 96.0781 93.3584 96.4713 93.5887 96.896C93.9726 97.6354 94.3872 98.359 94.8172 99.0826C95.6003 100.42 96.3374 101.71 95.9228 102.874H96.061C96.0917 102.858 96.1071 102.826 96.1224 102.811C96.7059 102.386 97.1359 101.694 96.7059 100.844C96.276 99.9635 95.0936 98.8781 94.6943 97.9815C94.464 97.4623 94.4486 97.0376 94.6175 96.6758C94.7711 96.3455 95.2164 96.1724 95.7078 96.2354C95.8306 96.2511 96.1071 96.3927 96.2453 96.487C96.7213 96.8174 96.9823 97.305 96.8902 97.714C96.8441 97.95 96.6445 98.0601 96.3681 97.95C96.1685 97.8713 95.9074 97.6983 95.7846 97.5253C95.6771 97.3837 95.7385 97.1635 95.7232 96.9904C95.3853 96.959 95.2932 97.0062 95.2778 97.2893C95.2625 97.7455 95.7999 98.4219 96.3681 98.5478C96.8595 98.6893 97.3355 98.4691 97.4584 98.0916C97.6273 97.5725 97.443 97.0376 96.9977 96.6444C96.7827 96.4556 96.5524 96.2039 96.4756 96.0151C96.3988 95.8106 96.4756 95.6691 96.537 95.4646C96.5524 95.4488 96.5217 95.4174 96.5063 95.3702C95.9228 95.1185 95.7692 95.5432 95.4468 95.732C95.3393 95.5432 95.2625 95.4174 95.1703 95.2601C95.0321 95.0084 94.9554 94.8983 94.8479 94.8983C94.7404 94.8825 94.679 94.9297 94.5715 95.0084M90.0108 95.7634C89.9187 95.8578 89.8572 96.0466 89.9494 96.2354C90.149 96.6129 90.5483 96.9904 90.9782 97.2107C91.8228 97.6196 92.5752 98.2489 93.1434 99.0511L93.4198 99.4759C92.9284 98.9882 92.3756 98.532 91.8535 98.0758C91.3007 97.5882 90.7632 97.368 90.3179 97.3837C90.1797 97.3994 90.0876 97.5095 90.1029 97.6511C90.1183 98.123 90.4408 98.6107 90.9014 99.1927C91.3007 99.6804 91.6999 100.247 92.1299 100.781L91.8535 100.546C91.1932 99.995 90.6097 99.3343 90.149 98.5635C89.9187 98.186 88.8898 96.896 88.4599 97.541C88.3063 97.777 88.552 98.2331 89.0127 98.6107C89.4273 98.941 89.8572 99.2084 90.2872 99.523C90.3026 100.042 90.4868 100.388 91.1011 100.844C91.4542 101.096 91.8074 101.301 92.1606 101.552C92.2681 101.631 92.4217 101.773 92.4524 101.867C92.6366 102.386 92.9591 102.653 93.3277 102.811C93.7423 103 94.1108 103 94.3718 103C94.6175 102.984 94.8632 102.858 95.0321 102.622C95.2778 102.292 95.4314 101.395 95.0629 100.687C94.94 100.451 94.7097 100.184 94.4947 100.011C94.3258 99.8534 94.2183 99.759 94.1262 99.5388C93.9265 99.0983 93.6808 98.6579 93.3737 98.2174C92.9591 97.6197 92.5906 97.4309 92.176 97.4781C91.8228 97.0219 91.5003 96.6129 91.1318 96.2196C90.7939 95.8736 90.3947 95.6691 90.149 95.6691C90.1029 95.7163 90.0415 95.732 90.0108 95.7634M87.1393 99.5702C87.1393 100.184 88.0299 100.262 88.2449 100.184C88.5213 100.074 88.6902 99.8691 88.9512 99.7747C89.1355 99.7118 89.4119 99.7905 89.7344 99.8062C89.1509 99.4287 88.2909 99.0039 87.7074 99.0039C87.3849 98.9882 87.1393 99.1455 87.1393 99.5702ZM88.4138 100.671C88.3063 100.703 88.2449 100.766 88.1527 100.813C88.2756 100.97 88.4752 101.269 88.6441 101.395C88.3984 101.442 88.1988 101.474 87.9992 101.552C87.8456 101.615 87.7381 101.725 87.6306 101.835C87.3849 102.071 87.431 102.166 87.8149 102.433C87.9531 102.528 88.076 102.622 88.2602 102.748C87.646 103.188 87.907 103.849 87.9378 103.849C88.1374 103.802 88.2756 103.739 88.4752 103.817C88.6595 103.912 88.8898 104.164 89.0587 104.4C89.4119 104.887 89.9187 105.092 90.4408 104.966C90.8093 104.871 91.055 104.4 90.9475 103.88C90.84 103.298 90.2411 102.701 89.7958 102.685C89.5194 102.685 89.4733 102.764 89.4733 103.11C89.6576 103.141 89.8572 103.094 89.9954 103.22C90.149 103.346 90.3179 103.629 90.364 103.849C90.4408 104.132 90.3333 104.337 90.0876 104.368C89.673 104.431 89.2276 104.132 88.9359 103.629C88.8591 103.487 88.7363 103.188 88.7363 103.062C88.7055 102.559 88.9052 102.119 89.2276 101.977C89.5962 101.835 90.0108 101.867 90.5022 102.15C91.3467 102.638 92.3449 103.896 93.1741 104.4C93.9726 104.887 94.679 104.494 95.1243 103.928C95.1396 103.912 95.1703 103.896 95.1857 103.865C95.1857 103.849 95.1857 103.817 95.2011 103.723C94.034 104.085 92.8363 103.235 91.5771 102.355C90.9014 101.883 90.2104 101.395 89.5194 100.955C89.2123 100.766 88.9359 100.671 88.6595 100.671C88.5827 100.64 88.4906 100.656 88.4138 100.671M98.2108 101.285C97.5812 101.615 97.3048 102.512 97.8883 103.66C98.0265 103.943 98.1954 104.226 98.3951 104.478C99.1629 105.469 100.023 106.271 100.867 107.089C101.374 107.593 101.865 108.143 102.357 108.694C103.616 110.125 103.386 111.824 103.416 111.903C103.985 110.975 104.461 110 104 108.505C103.708 107.577 103.094 106.932 102.449 106.366C101.973 105.925 101.466 105.564 100.959 105.155C100.268 104.604 99.8385 103.817 99.8078 103.141C99.7771 102.528 100.161 102.292 100.883 102.496C100.975 102.528 101.036 102.543 101.19 102.591C100.929 102.087 100.453 101.741 100.038 101.489C99.5928 101.206 99.2089 101.096 98.8711 101.096C98.6408 101.128 98.4104 101.19 98.2108 101.285M97.182 105.218C98.0572 106.665 98.779 108.222 99.47 109.748C99.8232 110.503 100.33 111.211 100.791 111.872C100.959 112.107 101.313 112.186 101.589 112.233C101.773 112.265 101.912 112.328 102.034 112.564C103.601 115.49 104.814 118.557 105.797 121.499C105.827 121.593 105.843 121.75 105.812 121.829C105.382 122.71 105.643 123.339 106.088 123.921C106.442 124.377 107.102 125.305 107.348 125.29C107.394 124.739 107.455 124.189 107.455 123.654C107.455 123.166 107.44 122.647 107.301 122.191C107.225 121.908 106.918 121.75 106.718 121.53C106.58 121.373 106.365 121.247 106.303 121.058C105.259 118.179 104.015 115.175 102.449 112.312C102.295 112.013 102.249 111.809 102.357 111.525C102.526 111.022 102.372 110.472 102.08 109.952C101.343 108.631 100.345 107.593 99.3011 106.665C98.6715 106.098 98.0265 105.595 97.3662 105.076C97.2894 105.013 97.1973 104.966 97.0438 104.871C97.1052 105.044 97.1359 105.139 97.182 105.218ZM94.3565 105.925C93.819 106.334 93.558 106.948 93.6194 107.876C93.6655 108.521 94.1108 109.449 94.5254 109.732C94.5561 109.433 94.5408 109.134 94.5868 108.883C94.6943 108.348 95.0629 108.065 95.5696 108.143C95.9996 108.222 96.6138 108.773 96.8134 109.307C97.1512 110.188 97.4277 111.069 97.7041 111.966C98.0265 112.988 98.6101 113.618 99.4239 113.838C100.1 114.011 100.745 113.885 101.405 113.57C101.128 113.397 100.913 113.256 100.683 113.13C99.9767 112.705 99.5007 111.966 99.1321 111.085C98.6868 110 98.2569 108.867 97.6426 107.86C97.2587 107.2 96.7366 106.555 96.1685 106.067C95.7999 105.752 95.4468 105.611 95.1243 105.611C94.8632 105.627 94.5868 105.752 94.3565 105.925M88.8591 112.957C88.4138 112.878 87.9685 112.815 87.4771 112.737C87.3389 113.303 87.5846 113.806 87.9071 114.247C88.2295 114.672 88.6441 115.002 88.9973 115.379C88.7209 115.505 88.4291 115.631 88.1527 115.757C88.6288 116.811 89.4119 117.33 90.6557 117.173C91.6692 117.047 92.6673 116.795 93.6501 116.575C94.7711 116.323 95.846 116.04 96.9363 116.512C97.9651 116.953 98.5793 117.912 98.9018 119.108C99.1475 120.067 99.0093 120.932 98.5793 121.892C98.564 121.923 98.779 122.128 98.8557 122.175C98.9786 121.782 99.3778 121.184 99.4546 120.791C100.023 117.771 98.0572 115.678 95.631 115.505C94.679 115.427 93.7115 115.537 92.7441 115.568C91.9456 115.6 91.1471 115.584 90.4561 115.081C89.6423 114.467 89.1662 113.161 89.8726 112.123C90.2718 111.525 91.0243 111.274 91.6539 111.588C92.0685 111.793 92.437 112.406 92.4217 112.894C92.4063 113.224 92.3295 113.508 92.0378 113.618C91.7614 113.712 91.5464 113.618 91.3467 113.366C91.316 113.334 91.27 113.303 91.2393 113.272C91.0703 113.696 91.3928 114.483 91.8688 114.624C92.6827 114.892 93.4812 113.822 93.343 112.784C93.2202 111.824 92.7748 111.022 91.961 110.645C91.055 110.236 90.3026 110.377 89.6576 111.069C89.5808 111.148 89.5041 111.195 89.4426 111.258C89.1048 110.896 88.813 110.597 88.4906 110.267C87.9685 111.211 88.3063 112.029 88.8591 112.957M93.4351 114.53C94.3565 114.499 95.3085 113.287 94.8786 112.218C94.5715 111.415 93.6194 110.755 92.8977 110.298C94.0187 111.636 94.4793 113.067 93.4351 114.53M105.152 116.197C105.474 116.748 105.689 117.393 105.935 118.006C106.81 117.456 107.44 116.37 107.071 115.191C106.887 114.593 106.564 114.027 106.273 113.476C106.042 113.067 105.766 112.705 105.52 112.312C105.274 111.934 105.075 111.525 104.829 111.116C104.261 112.941 104.246 114.609 105.152 116.197ZM101.758 118.463C102.05 119.249 102.864 119.517 103.677 119.249C103.954 119.155 104.215 119.029 104.399 118.95C104.153 118.274 103.862 117.66 103.647 117.015C103.171 115.584 102.28 114.892 101.19 114.703C100.929 114.656 100.652 114.64 100.315 114.593C100.883 115.93 101.313 117.236 101.758 118.463ZM92.0685 118.337C92.2374 118.431 92.3295 118.494 92.4524 118.573C91.9456 119.123 91.1778 119.312 90.7632 120.083C91.2239 120.099 91.6078 120.099 92.007 120.099C91.8074 120.586 91.4389 121.577 91.4696 121.593C93.8037 119.281 95.9996 119.139 98.5026 119.517C98.4258 118.809 96.8441 117.597 95.8921 117.362C95.585 117.283 95.2778 117.251 94.9861 117.251C94.0033 117.267 93.082 117.66 92.0685 118.337ZM106.856 119.076C107.486 118.824 108.1 118.588 108.714 118.463C108.668 118.353 108.637 118.242 108.591 118.132C108.484 117.865 108.376 117.582 108.254 117.299C107.655 117.818 107.133 118.463 106.856 119.076M106.979 120.665C106.948 120.681 106.918 120.728 106.856 120.822C107.793 120.995 108.146 121.845 108.315 122.82C108.852 122.678 109.098 122.207 109.344 121.766C109.543 121.955 109.743 122.191 109.958 122.348C109.774 121.64 109.559 120.917 109.313 120.177C109.19 120.162 109.067 120.146 108.945 120.146C108.284 120.177 107.639 120.382 106.979 120.665M98.825 124.047C98.9325 124.047 99.0554 124.047 99.1782 124.063C98.9786 124.598 98.7636 125.101 98.5333 125.604C98.564 125.636 99.3318 125.243 99.7003 124.991C99.8232 125.321 99.9307 125.62 100.038 125.919C100.791 123.386 102.541 121.939 104.307 120.492C104.184 120.46 104.031 120.46 103.892 120.46C102.311 120.429 99.946 121.813 98.825 124.047M104.568 122.332C103.954 122.867 103.386 123.465 103.079 124.283C102.771 125.069 102.879 125.699 103.355 126.218C103.969 125.652 104.43 125.069 104.246 124.346C104.676 124.314 105.09 124.299 105.597 124.251C105.213 123.386 104.983 122.631 105.505 121.703C105.474 121.672 105.443 121.656 105.413 121.64C105.152 121.876 104.845 122.081 104.568 122.332M108.177 123.449C108.499 124 108.714 124.487 109.037 124.881C109.252 125.18 109.62 125.368 110.065 125.18C110.219 125.117 110.434 124.944 110.542 124.786C110.495 124.566 110.449 124.362 110.403 124.141C110.081 124.173 109.851 123.984 109.651 123.842C109.313 123.591 108.96 123.434 108.468 123.434C108.361 123.434 108.269 123.434 108.177 123.449M104.937 126.045C104.814 126.47 104.63 126.816 104.077 126.941C104.292 127.272 104.645 127.335 105.029 127.287C105.397 127.24 105.658 126.973 105.812 126.674C106.058 126.234 106.088 125.699 106.027 125.227C105.996 124.975 105.95 124.676 105.873 124.503C105.367 125.007 105.106 125.51 104.937 126.045ZM108.776 126.784C109.206 127.036 109.851 126.737 110.188 126.013C109.605 126.171 109.405 125.809 109.098 125.494C108.837 125.227 108.499 125.054 108.161 124.802C108.008 125.541 108.3 126.517 108.776 126.784ZM106.349 126.658C106.365 127.067 106.365 127.429 105.965 127.791C106.349 127.901 106.687 127.807 107.01 127.539C107.301 127.303 107.394 127.02 107.378 126.69C107.348 126.123 106.933 125.431 106.411 125.18C106.411 125.714 106.319 126.218 106.349 126.658M108.131 128.341C108.177 128.42 108.238 128.467 108.33 128.467H108.392C108.453 128.467 108.545 128.436 108.637 128.389C108.898 128.247 108.991 128.09 108.96 127.885C108.852 127.287 108.422 126.91 107.962 126.564C107.854 127.24 107.824 127.854 108.131 128.341Z" fill="url(#paint6_linear_419_1108)"/>
<path d="M68.7921 87.6156L69.5906 87.1437L67.4255 83.274L66.627 83.7459L67.4562 85.2403L63.5251 87.5527L64.0165 88.4336L67.9476 86.1212L68.7921 87.6156V87.6156ZM72.3393 92.0516L68.4543 92.6808L70.9419 89.5347L70.1742 88.1662L65.4446 90.9505L65.9359 91.8314L69.5446 89.7078L69.5599 89.7392L66.7037 93.2314L67.103 93.955L71.4794 93.1999L71.4948 93.2157L67.8861 95.3393L68.3775 96.2202L73.1071 93.4359L72.3393 92.0516V92.0516Z" fill="#BCBAB7"/>
<path d="M75.523 206.23C74.4409 206.23 73.9835 204.756 73.9835 200.688C73.9835 198.574 74.9875 198.048 77.8434 198.048C78.5909 198.048 79.1933 198.059 79.7734 198.059C78.8586 200.939 77.6315 206.23 75.523 206.23ZM69.7219 203.453C69.7219 204.528 69.8223 205.453 70.0008 206.23H54.8734C52.8654 206.23 51.5713 205.75 51.5713 203.853V198.574H56.3348C56.7253 197.385 56.9819 196.299 57.1046 195.145H51.5713C51.5936 193.511 51.7051 192.06 51.8279 190.391C50.0206 191.054 48.6038 191.82 47.4436 193.134V195.145H44.9893C44.7885 196.574 44.7885 197.648 44.7327 198.574H47.4324V204.116C47.4324 208.002 49.7305 209.659 52.8765 209.659H73.448C75.9692 209.659 77.8992 207.545 79.7622 202.756V209.659H83.8899V195.134C82.0381 194.974 80.3312 194.871 78.4793 194.871C73.3811 194.871 69.7219 197.042 69.7219 203.453M91.3756 201.842V200.414C91.3756 198.562 91.2417 196.985 90.9851 195.134H86.9913C87.1252 196.985 87.2479 198.562 87.2479 200.414V209.659H91.3756C91.3756 204.482 92.9932 198.596 97.2993 199.225C97.2993 198.299 97.1655 196.185 96.92 194.871C93.7741 195.157 92.2346 197.991 91.3756 201.842M34.5697 206.23C33.4875 206.23 33.019 204.756 33.019 200.688C33.019 198.574 34.023 198.048 36.8789 198.048C37.6264 198.048 38.2288 198.059 38.8089 198.059C37.8941 200.939 36.6781 206.23 34.5697 206.23ZM28.7686 203.453C28.7686 207.842 30.3081 209.922 32.3719 209.922C34.9043 209.922 36.9124 207.625 38.8201 202.745V209.659H42.9477V195.134C41.0959 194.974 39.389 194.871 37.5371 194.871C32.4277 194.871 28.7686 197.042 28.7686 203.453M163.164 196.722C163.164 193.111 160.71 190.917 156.336 190.917C153.916 190.917 152.142 191.442 151.049 191.98C150.435 192.871 150.145 193.911 149.754 195.545C151.406 194.882 153.001 194.357 155.422 194.357C157.352 194.357 158.902 195.202 158.902 197.522C158.902 200.025 157.385 201.853 149.107 206.768C149.107 207.293 149.13 208.356 149.364 209.67H163.019C163.409 208.482 163.666 207.43 163.789 206.242H152.164C157.987 204.196 163.164 202.071 163.164 196.722M19.0518 205.602L18.8398 205.488C16.3632 204.139 13.0388 202.082 13.0388 198.334C13.0388 194.894 15.203 193.294 17.8135 193.294C20.7029 193.294 22.4543 195.385 22.4543 199.031C22.4543 201.533 21.1045 203.751 19.0518 205.602M26.9613 209.922L20.1674 206.208C24.005 204.779 26.8275 201.956 26.8275 197.956C26.8275 192.574 22.8783 189.854 17.8023 189.854C13.1392 189.854 8.65448 192.917 8.65448 198.836C8.65448 203.831 12.3694 206.813 16.4413 208.996L29.5383 215.99C29.5383 212.916 29.1814 211.145 26.9613 209.922ZM123.471 208.345C122.311 208.345 118.708 205.945 118.708 199.499C118.708 196.322 120.515 194.345 123.471 194.345C126.439 194.345 128.246 196.322 128.246 199.499C128.235 205.933 124.631 208.345 123.471 208.345ZM123.471 190.917C118.317 190.917 114.446 194.082 114.446 199.236C114.446 205.968 120.76 209.933 123.471 209.933C126.182 209.933 132.496 205.968 132.496 199.236C132.485 194.082 128.625 190.917 123.471 190.917ZM123.527 198.116C122.623 198.779 121.854 199.545 121.173 200.425C121.854 201.305 122.634 202.071 123.527 202.733C124.431 202.071 125.2 201.305 125.892 200.425C125.2 199.545 124.431 198.768 123.527 198.116ZM147.189 196.722C147.189 193.111 144.734 190.917 140.35 190.917C137.929 190.917 136.155 191.442 135.062 191.98C134.449 192.871 134.158 193.911 133.768 195.545C135.419 194.882 137.014 194.357 139.435 194.357C141.365 194.357 142.916 195.202 142.916 197.522C142.916 200.025 141.399 201.853 133.121 206.768C133.121 207.293 133.143 208.356 133.378 209.67H147.044C147.423 208.482 147.691 207.43 147.813 206.242H136.2C142.012 204.196 147.189 202.071 147.189 196.722M112.382 196.722C112.382 193.111 109.939 190.917 105.555 190.917C103.134 190.917 101.349 191.442 100.267 191.98C99.6421 192.871 99.3632 193.911 98.9727 195.545C100.624 194.882 102.219 194.357 104.64 194.357C106.57 194.357 108.121 195.202 108.121 197.522C108.121 200.025 106.603 201.853 98.3257 206.768C98.3257 207.293 98.348 208.356 98.5823 209.67H112.248C112.639 208.482 112.895 207.43 113.018 206.242H101.405C107.206 204.196 112.382 202.071 112.382 196.722" fill="#9A1032"/>
<path d="M147.558 184.693C146.978 184.842 146.331 184.99 145.639 185.116C144.937 185.253 144.066 185.322 143.029 185.322C142.003 185.322 140.976 185.185 139.928 184.899C138.879 184.613 137.942 184.156 137.105 183.527C136.268 182.899 135.577 182.076 135.041 181.048C134.506 180.019 134.238 178.773 134.238 177.288C134.238 175.928 134.461 174.739 134.896 173.711C135.331 172.682 135.945 171.836 136.726 171.151C137.507 170.476 138.433 169.962 139.504 169.631C140.575 169.288 141.746 169.128 142.995 169.128C143.787 169.128 144.546 169.208 145.294 169.368C146.041 169.528 146.788 169.711 147.525 169.939L147.201 173.334C146.543 172.956 145.885 172.682 145.238 172.499C144.591 172.316 143.91 172.225 143.207 172.225C142.471 172.225 141.824 172.351 141.233 172.602C140.653 172.854 140.151 173.208 139.727 173.654C139.314 174.099 138.99 174.636 138.767 175.265C138.544 175.882 138.433 176.556 138.433 177.299C138.433 178.065 138.555 178.75 138.812 179.368C139.069 179.985 139.414 180.499 139.861 180.922C140.307 181.345 140.842 181.676 141.467 181.893C142.092 182.122 142.783 182.225 143.531 182.225C144.2 182.225 144.87 182.145 145.528 181.985C146.186 181.825 146.788 181.642 147.346 181.413L147.558 184.693V184.693Z" fill="#9A1032"/>
<path d="M162.236 179.11C162.236 180.184 162.08 181.11 161.756 181.899C161.433 182.676 160.975 183.316 160.384 183.83C159.793 184.344 159.079 184.721 158.265 184.961C157.439 185.213 156.535 185.327 155.531 185.327C154.538 185.327 153.635 185.201 152.809 184.961C151.984 184.71 151.281 184.333 150.69 183.83C150.098 183.327 149.641 182.676 149.318 181.899C148.994 181.121 148.838 180.196 148.838 179.11V169.396H152.91V178.413C152.91 178.939 152.954 179.43 153.032 179.876C153.111 180.333 153.256 180.733 153.445 181.087C153.646 181.441 153.914 181.716 154.248 181.921C154.583 182.127 155.018 182.23 155.543 182.23C156.067 182.23 156.502 182.127 156.837 181.921C157.171 181.716 157.439 181.441 157.64 181.087C157.841 180.733 157.975 180.333 158.053 179.876C158.131 179.419 158.175 178.927 158.175 178.413V169.396H162.247V179.11H162.236Z" fill="#9A1032"/>
<path d="M168.352 176.617H169.4C169.746 176.617 170.081 176.582 170.382 176.514C170.683 176.445 170.951 176.331 171.185 176.16C171.408 175.988 171.587 175.76 171.721 175.485C171.855 175.211 171.922 174.868 171.922 174.468C171.922 174.057 171.855 173.725 171.721 173.462C171.587 173.188 171.408 172.971 171.185 172.811C170.962 172.651 170.694 172.525 170.382 172.468C170.07 172.4 169.746 172.365 169.4 172.365H168.352V176.617V176.617ZM164.269 169.394H169.133C171.486 169.394 173.216 169.805 174.32 170.64C175.424 171.474 175.982 172.765 175.982 174.537C175.982 176.125 175.447 177.359 174.387 178.251C173.316 179.142 171.832 179.588 169.913 179.588H168.34V185.062H164.269V169.394V169.394Z" fill="#9A1032"/>
<path d="M49.3029 169.396H53.4641L55.4387 181.418H55.4833L57.536 169.396H62.7012L64.8431 181.418H64.8877L66.8846 169.396H70.845L67.4313 185.052H62.1991L60.0349 173.03H59.9903L57.9822 185.052H52.6943L49.3029 169.396Z" fill="#9A1032"/>
<path d="M75.2082 177.224C75.2082 177.864 75.2751 178.493 75.409 179.099C75.5428 179.704 75.7436 180.241 76.0225 180.699C76.3014 181.167 76.6584 181.533 77.0935 181.807C77.5286 182.081 78.0529 182.218 78.6665 182.218C79.2801 182.218 79.8044 182.081 80.2395 181.807C80.6746 181.533 81.0315 181.156 81.3104 180.699C81.5893 180.23 81.7901 179.704 81.924 179.099C82.0579 178.493 82.1248 177.864 82.1248 177.224C82.1248 176.55 82.0579 175.91 81.924 175.304C81.7901 174.699 81.5893 174.162 81.3104 173.704C81.0315 173.247 80.6746 172.882 80.2395 172.619C79.8044 172.345 79.2689 172.219 78.6665 172.219C78.0529 172.219 77.5286 172.356 77.0935 172.619C76.6584 172.893 76.2903 173.247 76.0225 173.704C75.7436 174.162 75.5428 174.699 75.409 175.304C75.2751 175.91 75.2082 176.55 75.2082 177.224ZM71.0024 177.224C71.0024 175.967 71.1697 174.836 71.4932 173.842C71.8168 172.836 72.3076 171.99 72.9547 171.293C73.6017 170.596 74.3938 170.059 75.3532 169.693C76.3126 169.316 77.417 169.133 78.6776 169.133C79.9271 169.133 81.0427 169.316 81.991 169.693C82.9504 170.07 83.7424 170.607 84.3895 171.293C85.0365 171.99 85.5162 172.836 85.8509 173.842C86.1744 174.847 86.3418 175.967 86.3418 177.224C86.3418 178.47 86.1744 179.59 85.8509 180.584C85.5162 181.59 85.0254 182.436 84.3783 183.144C83.7313 183.853 82.928 184.39 81.9686 184.756C81.0204 185.133 79.916 185.316 78.6776 185.316C77.417 185.316 76.3238 185.133 75.3643 184.756C74.4161 184.378 73.6129 183.841 72.9658 183.144C72.3188 182.447 71.8279 181.59 71.4932 180.584C71.1697 179.59 71.0024 178.459 71.0024 177.224" fill="#9A1032"/>
<path d="M91.9448 175.897H93.0158C93.3393 175.897 93.674 175.886 94.031 175.863C94.388 175.84 94.7115 175.772 94.9904 175.646C95.2693 175.52 95.5147 175.349 95.7043 175.109C95.894 174.869 95.9832 174.526 95.9832 174.08C95.9832 173.726 95.9052 173.429 95.7267 173.2C95.5593 172.972 95.3474 172.789 95.0685 172.674C94.8007 172.56 94.4884 172.469 94.1202 172.423C93.7632 172.377 93.3839 172.355 92.9935 172.355H91.9225V175.897H91.9448ZM87.8729 169.395H95.1466C95.8159 169.395 96.4518 169.475 97.0542 169.635C97.6566 169.795 98.181 170.035 98.6272 170.366C99.0734 170.697 99.4304 171.109 99.687 171.6C99.9436 172.092 100.066 172.674 100.066 173.349C100.066 174.4 99.8209 175.257 99.3412 175.932C98.8615 176.606 98.1252 177.063 97.1323 177.303V177.349C97.4558 177.44 97.7124 177.577 97.9132 177.771C98.114 177.966 98.2814 178.206 98.4264 178.503C98.5714 178.8 98.7053 179.131 98.828 179.509C98.9507 179.886 99.1069 180.32 99.2965 180.8L100.78 185.063H96.5299L95.6486 182.24C95.4478 181.566 95.247 181.017 95.0685 180.583C94.89 180.149 94.6892 179.806 94.4772 179.554C94.2652 179.303 94.0198 179.12 93.7521 179.029C93.4843 178.926 93.1608 178.88 92.7815 178.88H91.9225V185.074H87.8506V169.395H87.8729Z" fill="#9A1032"/>
<path d="M102.542 169.396H106.614V181.955H112.917V185.052H102.542V169.396Z" fill="#9A1032"/>
<path d="M118.419 181.952H119.992C121.521 181.952 122.703 181.552 123.518 180.763C124.332 179.975 124.745 178.798 124.745 177.221C124.745 175.655 124.321 174.466 123.495 173.678C122.659 172.889 121.498 172.489 119.992 172.489H118.419V181.952V181.952ZM114.347 169.392H119.914C121.242 169.392 122.469 169.518 123.573 169.746C124.689 169.986 125.637 170.398 126.429 170.992C127.221 171.586 127.846 172.375 128.292 173.381C128.738 174.386 128.962 175.643 128.962 177.152C128.962 178.615 128.738 179.849 128.281 180.855C127.824 181.86 127.199 182.672 126.396 183.289C125.593 183.906 124.633 184.352 123.529 184.637C122.424 184.912 121.219 185.049 119.914 185.049H114.347V169.392Z" fill="#9A1032"/>
<path fill-rule="evenodd" clip-rule="evenodd" d="M-6.10352e-05 169.396V185.052H4.75236V179.396H8.17722L9.39321 175.979H4.75236V172.801H10.52L11.736 169.396H-6.10352e-05Z" fill="#9A1032"/>
<path fill-rule="evenodd" clip-rule="evenodd" d="M13.1978 185.049H17.9502V169.393H13.1978V185.049Z" fill="#9A1032"/>
<path fill-rule="evenodd" clip-rule="evenodd" d="M21.2297 169.396V185.052H25.9933V179.396H29.4182L30.6342 175.978H25.9933V172.801H31.7609L32.9769 169.396H21.2297Z" fill="#9A1032"/>
<path fill-rule="evenodd" clip-rule="evenodd" d="M40.3769 179.941L38.4693 173.416L36.6286 179.941H40.3769ZM46.5908 185.05H41.7826L41.1579 182.947H35.7807L35.1894 185.05H30.504L36.0708 169.393H41.0128L46.5908 185.05V185.05Z" fill="#9A1032"/>
</g>
<defs>
<linearGradient id="paint0_linear_419_1108" x1="68.4052" y1="15.0999" x2="81.8779" y2="6.58018" gradientUnits="userSpaceOnUse">
<stop stop-color="#FAF6F2"/>
<stop offset="1" stop-color="#FFFBF7"/>
</linearGradient>
<linearGradient id="paint1_linear_419_1108" x1="92.9145" y1="138.446" x2="79.124" y2="83.0845" gradientUnits="userSpaceOnUse">
<stop stop-color="#FAF6F2"/>
<stop offset="0.512" stop-color="#FFFBF7"/>
<stop offset="0.677" stop-color="#FFFBF7"/>
<stop offset="0.901" stop-color="#EBE7E3"/>
<stop offset="1" stop-color="#CCC9C6"/>
</linearGradient>
<linearGradient id="paint2_linear_419_1108" x1="68.4264" y1="18.0999" x2="59.2135" y2="33.622" gradientUnits="userSpaceOnUse">
<stop stop-color="#791426"/>
<stop offset="0.535" stop-color="#AF1C3B"/>
<stop offset="1" stop-color="#791426"/>
</linearGradient>
<linearGradient id="paint3_linear_419_1108" x1="66.108" y1="16.7242" x2="56.8916" y2="32.2519" gradientUnits="userSpaceOnUse">
<stop stop-color="#791426"/>
<stop offset="0.535" stop-color="#AF1C3B"/>
<stop offset="1" stop-color="#791426"/>
</linearGradient>
<linearGradient id="paint4_linear_419_1108" x1="72.1021" y1="20.2721" x2="62.8866" y2="35.7984" gradientUnits="userSpaceOnUse">
<stop stop-color="#791426"/>
<stop offset="0.535" stop-color="#AF1C3B"/>
<stop offset="1" stop-color="#791426"/>
</linearGradient>
<linearGradient id="paint5_linear_419_1108" x1="72.4499" y1="192.585" x2="107.386" y2="111.591" gradientUnits="userSpaceOnUse">
<stop stop-color="#791426"/>
<stop offset="0.535" stop-color="#AF1C3B"/>
<stop offset="1" stop-color="#791426"/>
</linearGradient>
<linearGradient id="paint6_linear_419_1108" x1="71.5152" y1="55.9026" x2="112.221" y2="144.838" gradientUnits="userSpaceOnUse">
<stop stop-color="#791426"/>
<stop offset="0.535" stop-color="#AF1C3B"/>
<stop offset="1" stop-color="#791426"/>
</linearGradient>
<clipPath id="clip0_419_1108">
<rect width="176" height="216" fill="white"/>
</clipPath>
</defs>
</svg>
